<?xml version="1.0" encoding="UTF-8" standalone="no"?>
<!-- Created with Inkscape (http://www.inkscape.org/) -->

<svg
   xmlns:dc="http://purl.org/dc/elements/1.1/"
   xmlns:cc="http://creativecommons.org/ns#"
   xmlns:rdf="http://www.w3.org/1999/02/22-rdf-syntax-ns#"
   xmlns:svg="http://www.w3.org/2000/svg"
   xmlns="http://www.w3.org/2000/svg"
   xmlns:xlink="http://www.w3.org/1999/xlink"
   xmlns:sodipodi="http://sodipodi.sourceforge.net/DTD/sodipodi-0.dtd"
   xmlns:inkscape="http://www.inkscape.org/namespaces/inkscape"
   width="1920"
   height="1080"
   viewBox="0 0 1920 1080"
   id="svg2"
   version="1.1"
   inkscape:version="0.91 r13725"
   inkscape:export-filename="/projects/TowerJump/resources/bg.png"
   inkscape:export-xdpi="98.606735"
   inkscape:export-ydpi="98.606735"
   sodipodi:docname="bgmenu1.svg">
  <defs
     id="defs4" />
  <sodipodi:namedview
     id="base"
     pagecolor="#969696"
     bordercolor="#666666"
     borderopacity="1.0"
     inkscape:pageopacity="0"
     inkscape:pageshadow="2"
     inkscape:zoom="0.49497475"
     inkscape:cx="764.7273"
     inkscape:cy="472.07207"
     inkscape:document-units="px"
     inkscape:current-layer="layer1"
     showgrid="false"
     units="px"
     inkscape:window-width="1873"
     inkscape:window-height="998"
     inkscape:window-x="1280"
     inkscape:window-y="0"
     inkscape:window-maximized="0"
     inkscape:showpageshadow="false" />
  <metadata
     id="metadata7">
    <rdf:RDF>
      <cc:Work
         rdf:about="">
        <dc:format>image/svg+xml</dc:format>
        <dc:type
           rdf:resource="http://purl.org/dc/dcmitype/StillImage" />
        <dc:title />
      </cc:Work>
    </rdf:RDF>
  </metadata>
  <g
     inkscape:label="Ebene 1"
     inkscape:groupmode="layer"
     id="layer1"
     transform="translate(0,27.637839)">
    <rect
       style="opacity:1;fill:#c9ffa4;fill-opacity:1;stroke:none;stroke-width:20;stroke-linejoin:round;stroke-miterlimit:4;stroke-dasharray:none;stroke-opacity:1"
       id="rect4235"
       width="1940"
       height="1088.5714"
       x="-0.43302533"
       y="-32.858345" />
    <g
       id="g4253"
       transform="translate(-20.203051,40.406102)">
      <path
         inkscape:connector-curvature="0"
         id="path4239"
         d="m 609.58158,504.07333 c 0,0 11.42857,-25.71428 0,-40"
         style="fill:none;fill-rule:evenodd;stroke:#783800;stroke-width:3.70000005;stroke-linecap:butt;stroke-linejoin:miter;stroke-miterlimit:4;stroke-dasharray:none;stroke-opacity:1" />
      <path
         sodipodi:nodetypes="cc"
         inkscape:connector-curvature="0"
         id="path4241"
         d="m 631.42856,455.21931 c 1.42858,44.28571 -14.99999,50.71428 -14.99999,50.71428"
         style="fill:none;fill-rule:evenodd;stroke:#783800;stroke-width:3.70000005;stroke-linecap:butt;stroke-linejoin:miter;stroke-miterlimit:4;stroke-dasharray:none;stroke-opacity:1" />
      <path
         style="fill:none;fill-rule:evenodd;stroke:#783800;stroke-width:3.70000005;stroke-linecap:butt;stroke-linejoin:miter;stroke-miterlimit:4;stroke-dasharray:none;stroke-opacity:0.95686275"
         d="m 641.90646,495.99211 c 0,0 11.42857,-25.71428 0,-40"
         id="path4243"
         inkscape:connector-curvature="0" />
    </g>
    <use
       id="use4266"
       xlink:href="#g4253"
       x="0"
       y="0"
       width="100%"
       height="100%"
       transform="translate(346.25323,-126.93745)" />
    <use
       id="use4268"
       xlink:href="#g4253"
       x="0"
       y="0"
       width="100%"
       height="100%"
       transform="translate(856.76223,120.15769)" />
    <use
       id="use4270"
       xlink:href="#g4253"
       x="0"
       y="0"
       width="100%"
       height="100%"
       transform="translate(923.83349,-277.30328)" />
    <use
       id="use4272"
       xlink:href="#g4253"
       x="0"
       y="0"
       width="100%"
       height="100%"
       transform="translate(809.85083,385.53959)" />
    <use
       id="use4310"
       xlink:href="#g4253"
       x="0"
       y="0"
       width="100%"
       height="100%"
       transform="translate(-411.08352,-466.54303)" />
    <use
       id="use4312"
       xlink:href="#g4253"
       x="0"
       y="0"
       width="100%"
       height="100%"
       transform="translate(-197.69788,-224.23383)" />
    <use
       id="use4314"
       xlink:href="#g4253"
       x="0"
       y="0"
       width="100%"
       height="100%"
       transform="translate(-252.59778,77.646678)" />
    <use
       id="use4316"
       xlink:href="#g4253"
       x="0"
       y="0"
       width="100%"
       height="100%"
       transform="translate(55.775105,378.52905)" />
    <use
       id="use4318"
       xlink:href="#g4253"
       x="0"
       y="0"
       width="100%"
       height="100%"
       transform="translate(453.15605,165.43243)" />
    <use
       id="use4320"
       xlink:href="#g4253"
       x="0"
       y="0"
       width="100%"
       height="100%"
       transform="translate(288.41173,-390.97511)" />
    <use
       id="use4322"
       xlink:href="#g4253"
       x="0"
       y="0"
       width="100%"
       height="100%"
       transform="translate(236.87461,-204.17034)" />
    <use
       id="use4326"
       xlink:href="#g4253"
       x="0"
       y="0"
       width="100%"
       height="100%"
       transform="translate(465.42908,406.60165)" />
    <use
       id="use4328"
       xlink:href="#g4253"
       x="0"
       y="0"
       width="100%"
       height="100%"
       transform="translate(928.05565,-512.65069)" />
    <use
       id="use4330"
       xlink:href="#g4253"
       x="0"
       y="0"
       width="100%"
       height="100%"
       transform="translate(-48.768035,-92.59697)" />
    <use
       id="use4332"
       xlink:href="#g4253"
       x="0"
       y="0"
       width="100%"
       height="100%"
       transform="translate(-80.797909,-274.9251)" />
    <use
       id="use4334"
       xlink:href="#g4253"
       x="0"
       y="0"
       width="100%"
       height="100%"
       transform="translate(-392.06851,-256.07234)" />
    <use
       id="use4336"
       xlink:href="#g4253"
       x="0"
       y="0"
       width="100%"
       height="100%"
       transform="translate(-253.67201,-383.55683)" />
    <use
       id="use4338"
       xlink:href="#g4253"
       x="0"
       y="0"
       width="100%"
       height="100%"
       transform="translate(-405.92297,-194.08759)" />
    <use
       id="use4340"
       xlink:href="#g4253"
       x="0"
       y="0"
       width="100%"
       height="100%"
       transform="translate(-237.1903,-90.634043)" />
    <use
       id="use4342"
       xlink:href="#g4253"
       x="0"
       y="0"
       width="100%"
       height="100%"
       transform="translate(-443.92646,-355.32975)" />
    <use
       id="use4344"
       xlink:href="#g4253"
       x="0"
       y="0"
       width="100%"
       height="100%"
       transform="translate(-498.59933,-7.40026)" />
    <use
       id="use4346"
       xlink:href="#g4253"
       x="0"
       y="0"
       width="100%"
       height="100%"
       transform="translate(-415.90232,177.90675)" />
    <use
       id="use4348"
       xlink:href="#g4253"
       x="0"
       y="0"
       width="100%"
       height="100%"
       transform="translate(-379.24604,-39.319901)" />
    <use
       id="use4350"
       xlink:href="#g4253"
       x="0"
       y="0"
       width="100%"
       height="100%"
       transform="translate(21.964224,494.49992)" />
    <use
       id="use4354"
       xlink:href="#g4253"
       x="0"
       y="0"
       width="100%"
       height="100%"
       transform="translate(241.51058,406.28511)" />
    <use
       id="use4356"
       xlink:href="#g4253"
       x="0"
       y="0"
       width="100%"
       height="100%"
       transform="translate(492.17818,251.61263)" />
    <use
       id="use4358"
       xlink:href="#g4253"
       x="0"
       y="0"
       width="100%"
       height="100%"
       transform="translate(650.18655,107.99265)" />
    <use
       id="use4360"
       xlink:href="#g4253"
       x="0"
       y="0"
       width="100%"
       height="100%"
       transform="translate(889.7078,-9.4471608)" />
    <use
       id="use4362"
       xlink:href="#g4253"
       x="0"
       y="0"
       width="100%"
       height="100%"
       transform="translate(1135.5139,-342.81936)" />
    <use
       id="use4364"
       xlink:href="#g4253"
       x="0"
       y="0"
       width="100%"
       height="100%"
       transform="translate(1280.1547,-336.23954)" />
    <use
       id="use4366"
       xlink:href="#g4253"
       x="0"
       y="0"
       width="100%"
       height="100%"
       transform="translate(1001.3569,-463.1694)" />
    <use
       id="use4368"
       xlink:href="#g4253"
       x="0"
       y="0"
       width="100%"
       height="100%"
       transform="translate(561.49926,-221.85315)" />
    <use
       id="use4370"
       xlink:href="#g4253"
       x="0"
       y="0"
       width="100%"
       height="100%"
       transform="translate(791.41062,-257.4432)" />
    <use
       id="use4372"
       xlink:href="#g4253"
       x="0"
       y="0"
       width="100%"
       height="100%"
       transform="translate(750.16149,-179.11359)" />
    <use
       id="use4374"
       xlink:href="#g4253"
       x="0"
       y="0"
       width="100%"
       height="100%"
       transform="translate(681.53792,-261.83561)" />
    <use
       id="use4378"
       xlink:href="#g4253"
       x="0"
       y="0"
       width="100%"
       height="100%"
       transform="translate(156.77164,-416.45155)" />
    <use
       id="use4380"
       xlink:href="#g4253"
       x="0"
       y="0"
       width="100%"
       height="100%"
       transform="translate(142.78856,-416.03799)" />
    <use
       id="use4382"
       xlink:href="#g4253"
       x="0"
       y="0"
       width="100%"
       height="100%"
       transform="translate(53.840181,-169.08929)" />
    <use
       id="use4384"
       xlink:href="#g4253"
       x="0"
       y="0"
       width="100%"
       height="100%"
       transform="translate(-20.756763,-329.90862)" />
    <use
       id="use4386"
       xlink:href="#g4253"
       x="0"
       y="0"
       width="100%"
       height="100%"
       transform="translate(-36.682204,-188.82289)" />
    <use
       id="use4388"
       xlink:href="#g4253"
       x="0"
       y="0"
       width="100%"
       height="100%"
       transform="translate(488.4101,-502.8536)" />
    <use
       id="use4390"
       xlink:href="#g4253"
       x="0"
       y="0"
       width="100%"
       height="100%"
       transform="translate(609.9585,-83.525952)" />
    <use
       id="use4394"
       xlink:href="#g4253"
       x="0"
       y="0"
       width="100%"
       height="100%"
       transform="translate(1139.7102,-38.472867)" />
    <use
       id="use4396"
       xlink:href="#g4253"
       x="0"
       y="0"
       width="100%"
       height="100%"
       transform="translate(692.46927,215.78497)" />
    <use
       id="use4398"
       xlink:href="#g4253"
       x="0"
       y="0"
       width="100%"
       height="100%"
       transform="translate(923.75213,294.57741)" />
    <use
       id="use4400"
       xlink:href="#g4253"
       x="0"
       y="0"
       width="100%"
       height="100%"
       transform="translate(783.00214,30.575858)" />
    <use
       id="use4402"
       xlink:href="#g4253"
       x="0"
       y="0"
       width="100%"
       height="100%"
       transform="translate(219.28108,72.905338)" />
    <use
       id="use4404"
       xlink:href="#g4253"
       x="0"
       y="0"
       width="100%"
       height="100%"
       transform="translate(-88.586379,180.7203)" />
    <use
       id="use4406"
       xlink:href="#g4253"
       x="0"
       y="0"
       width="100%"
       height="100%"
       transform="translate(132.41858,264.64723)" />
    <use
       id="use4408"
       xlink:href="#g4253"
       x="0"
       y="0"
       width="100%"
       height="100%"
       transform="translate(122.29112,56.414818)" />
    <use
       id="use4410"
       xlink:href="#g4253"
       x="0"
       y="0"
       width="100%"
       height="100%"
       transform="translate(90.886747,-53.060136)" />
    <use
       id="use4412"
       xlink:href="#g4253"
       x="0"
       y="0"
       width="100%"
       height="100%"
       transform="translate(240.08713,185.64213)" />
    <use
       id="use4414"
       xlink:href="#g4253"
       x="0"
       y="0"
       width="100%"
       height="100%"
       transform="translate(55.812925,210.52241)" />
    <use
       id="use4416"
       xlink:href="#g4253"
       x="0"
       y="0"
       width="100%"
       height="100%"
       transform="translate(-164.93856,441.531)" />
    <use
       id="use4418"
       xlink:href="#g4253"
       x="0"
       y="0"
       width="100%"
       height="100%"
       transform="translate(-306.28787,371.70626)" />
    <use
       id="use4420"
       xlink:href="#g4253"
       x="0"
       y="0"
       width="100%"
       height="100%"
       transform="translate(-216.6955,346.84185)" />
    <use
       id="use4422"
       xlink:href="#g4253"
       x="0"
       y="0"
       width="100%"
       height="100%"
       transform="translate(-142.66501,104.20733)" />
    <use
       id="use4424"
       xlink:href="#g4253"
       x="0"
       y="0"
       width="100%"
       height="100%"
       transform="translate(-225.45721,188.79357)" />
    <use
       id="use4426"
       xlink:href="#g4253"
       x="0"
       y="0"
       width="100%"
       height="100%"
       transform="translate(-559.05018,213.4559)" />
    <use
       id="use4430"
       xlink:href="#g4253"
       x="0"
       y="0"
       width="100%"
       height="100%"
       transform="translate(-523.21688,270.18856)" />
    <use
       id="use4432"
       xlink:href="#g4253"
       x="0"
       y="0"
       width="100%"
       height="100%"
       transform="translate(-464.45518,398.37847)" />
    <use
       id="use4434"
       xlink:href="#g4253"
       x="0"
       y="0"
       width="100%"
       height="100%"
       transform="translate(1247.4887,470.31778)" />
    <use
       id="use4436"
       xlink:href="#g4253"
       x="0"
       y="0"
       width="100%"
       height="100%"
       transform="translate(1048.2545,462.19316)" />
    <use
       id="use4438"
       xlink:href="#g4253"
       x="0"
       y="0"
       width="100%"
       height="100%"
       transform="translate(562.74192,481.55093)" />
    <use
       id="use4440"
       xlink:href="#g4253"
       x="0"
       y="0"
       width="100%"
       height="100%"
       transform="translate(655.26896,462.52006)" />
    <use
       id="use4442"
       xlink:href="#g4253"
       x="0"
       y="0"
       width="100%"
       height="100%"
       transform="translate(329.18611,331.39621)" />
    <use
       id="use4444"
       xlink:href="#g4253"
       x="0"
       y="0"
       width="100%"
       height="100%"
       transform="translate(599.64768,340.2151)" />
    <use
       id="use4446"
       xlink:href="#g4253"
       x="0"
       y="0"
       width="100%"
       height="100%"
       transform="translate(434.49741,74.323868)" />
    <use
       id="use4448"
       xlink:href="#g4253"
       x="0"
       y="0"
       width="100%"
       height="100%"
       transform="translate(482.66357,-21.511397)" />
    <use
       id="use4450"
       xlink:href="#g4253"
       x="0"
       y="0"
       width="100%"
       height="100%"
       transform="translate(969.82002,40.022134)" />
    <use
       id="use4456"
       xlink:href="#g4253"
       x="0"
       y="0"
       width="100%"
       height="100%"
       transform="translate(1210.0184,-167.17808)" />
    <use
       id="use4458"
       xlink:href="#g4253"
       x="0"
       y="0"
       width="100%"
       height="100%"
       transform="translate(997.34086,139.73181)" />
    <use
       id="use4460"
       xlink:href="#g4253"
       x="0"
       y="0"
       width="100%"
       height="100%"
       transform="translate(1173.776,101.94741)" />
    <use
       id="use4462"
       xlink:href="#g4253"
       x="0"
       y="0"
       width="100%"
       height="100%"
       transform="translate(1003.3868,-127.46064)" />
    <use
       id="use4464"
       xlink:href="#g4253"
       x="0"
       y="0"
       width="100%"
       height="100%"
       transform="translate(1266.8601,315.06584)" />
    <use
       id="use4466"
       xlink:href="#g4253"
       x="0"
       y="0"
       width="100%"
       height="100%"
       transform="translate(1254.2983,160.17162)" />
    <use
       id="use4470"
       xlink:href="#g4253"
       x="0"
       y="0"
       width="100%"
       height="100%"
       transform="translate(1495.7083,228.75322)" />
    <use
       id="use4474"
       xlink:href="#g4253"
       x="0"
       y="0"
       width="100%"
       height="100%"
       transform="translate(1127.4022,337.77462)" />
    <use
       id="use4476"
       xlink:href="#g4253"
       x="0"
       y="0"
       width="100%"
       height="100%"
       transform="translate(1257.8069,37.692018)" />
    <use
       id="use4478"
       xlink:href="#g4253"
       x="0"
       y="0"
       width="100%"
       height="100%"
       transform="translate(1074.174,101.63344)" />
    <use
       id="use4480"
       xlink:href="#g4253"
       x="0"
       y="0"
       width="100%"
       height="100%"
       transform="translate(754.29433,-18.637674)" />
    <use
       id="use4482"
       xlink:href="#g4253"
       x="0"
       y="0"
       width="100%"
       height="100%"
       transform="translate(793.33127,-96.957106)" />
    <use
       id="use4484"
       xlink:href="#g4253"
       x="0"
       y="0"
       width="100%"
       height="100%"
       transform="translate(571.70135,-301.18965)" />
    <use
       id="use4486"
       xlink:href="#g4253"
       x="0"
       y="0"
       width="100%"
       height="100%"
       transform="translate(393.57597,-405.92774)" />
    <use
       id="use4488"
       xlink:href="#g4253"
       x="0"
       y="0"
       width="100%"
       height="100%"
       transform="translate(768.69933,-435.33195)" />
    <use
       id="use4490"
       xlink:href="#g4253"
       x="0"
       y="0"
       width="100%"
       height="100%"
       transform="translate(416.87816,-281.37413)" />
  </g>
</svg>
