<?xml version="1.0" encoding="UTF-8" standalone="no"?>
<!-- Created with Inkscape (http://www.inkscape.org/) -->

<svg
   xmlns:dc="http://purl.org/dc/elements/1.1/"
   xmlns:cc="http://creativecommons.org/ns#"
   xmlns:rdf="http://www.w3.org/1999/02/22-rdf-syntax-ns#"
   xmlns:svg="http://www.w3.org/2000/svg"
   xmlns="http://www.w3.org/2000/svg"
   xmlns:xlink="http://www.w3.org/1999/xlink"
   xmlns:sodipodi="http://sodipodi.sourceforge.net/DTD/sodipodi-0.dtd"
   xmlns:inkscape="http://www.inkscape.org/namespaces/inkscape"
   width="1920"
   height="1080"
   viewBox="0 0 1920 1080"
   id="svg2"
   version="1.1"
   inkscape:version="0.91 r13725"
   inkscape:export-filename="/projects/TowerJump/resources/bgmenu3.png"
   inkscape:export-xdpi="98.606735"
   inkscape:export-ydpi="98.606735"
   sodipodi:docname="bgmenu3.svg">
  <defs
     id="defs4">
    <linearGradient
       inkscape:collect="always"
       id="linearGradient4554">
      <stop
         style="stop-color:#e1fffe;stop-opacity:1;"
         offset="0"
         id="stop4556" />
      <stop
         style="stop-color:#000000;stop-opacity:1"
         offset="1"
         id="stop4558" />
    </linearGradient>
    <linearGradient
       inkscape:collect="always"
       xlink:href="#linearGradient4554"
       id="linearGradient4560"
       x1="929.34033"
       y1="961.23309"
       x2="931.36078"
       y2="598.80371"
       gradientUnits="userSpaceOnUse"
       gradientTransform="matrix(1,0,0,1.0501931,0,-55.457808)" />
  </defs>
  <sodipodi:namedview
     id="base"
     pagecolor="#969696"
     bordercolor="#666666"
     borderopacity="1.0"
     inkscape:pageopacity="0"
     inkscape:pageshadow="2"
     inkscape:zoom="0.49497475"
     inkscape:cx="926.3517"
     inkscape:cy="552.88427"
     inkscape:document-units="px"
     inkscape:current-layer="layer1"
     showgrid="false"
     units="px"
     inkscape:window-width="1873"
     inkscape:window-height="998"
     inkscape:window-x="1280"
     inkscape:window-y="0"
     inkscape:window-maximized="0"
     inkscape:showpageshadow="false" />
  <metadata
     id="metadata7">
    <rdf:RDF>
      <cc:Work
         rdf:about="">
        <dc:format>image/svg+xml</dc:format>
        <dc:type
           rdf:resource="http://purl.org/dc/dcmitype/StillImage" />
        <dc:title></dc:title>
      </cc:Work>
    </rdf:RDF>
  </metadata>
  <g
     inkscape:label="Ebene 1"
     inkscape:groupmode="layer"
     id="layer1"
     transform="translate(0,27.637839)">
    <rect
       style="opacity:1;fill:url(#linearGradient4560);fill-opacity:1;stroke:none;stroke-width:19.70000076;stroke-linejoin:round;stroke-miterlimit:4;stroke-dasharray:none;stroke-opacity:1"
       id="rect4514"
       width="2004.1427"
       height="549.52301"
       x="-16.162441"
       y="555.36713" />
    <rect
       style="opacity:1;fill:#000000;fill-opacity:1;stroke:none;stroke-width:19.70000076;stroke-linejoin:round;stroke-miterlimit:4;stroke-dasharray:none;stroke-opacity:1"
       id="rect4562"
       width="2032.4269"
       height="612.15247"
       x="-18.182745"
       y="-36.582283" />
    <path
       sodipodi:type="star"
       style="opacity:1;fill:#a0ffe9;fill-opacity:1;stroke:none;stroke-width:19.70000076;stroke-linejoin:round;stroke-miterlimit:4;stroke-dasharray:none;stroke-opacity:1"
       id="path4566"
       sodipodi:sides="12"
       sodipodi:cx="308.09653"
       sodipodi:cy="193.73251"
       sodipodi:r1="16.288219"
       sodipodi:r2="12.437131"
       sodipodi:arg1="1.0516502"
       sodipodi:arg2="1.3134496"
       inkscape:flatsided="false"
       inkscape:rounded="0.114276"
       inkscape:randomized="0"
       d="m 316.17775,207.87465 c -0.53095,0.3034 -4.32439,-2.27022 -4.91578,-2.11458 -0.59139,0.15565 -2.62645,4.26322 -3.23797,4.2605 -0.61152,-0.003 -2.60992,-4.12826 -3.1999,-4.28916 -0.58997,-0.16091 -4.40618,2.37883 -4.93441,2.07071 -0.52823,-0.30811 -0.19613,-4.88014 -0.62661,-5.31447 -0.43049,-0.43434 -5.00529,-0.14297 -5.30869,-0.67392 -0.3034,-0.53095 2.27022,-4.32439 2.11458,-4.91577 -0.15565,-0.59139 -4.26322,-2.62645 -4.2605,-3.23797 0.003,-0.61152 4.12826,-2.60993 4.28916,-3.1999 0.16091,-0.58998 -2.37883,-4.40619 -2.07071,-4.93441 0.30811,-0.52823 4.88014,-0.19613 5.31447,-0.62662 0.43434,-0.43048 0.14297,-5.00528 0.67392,-5.30868 0.53095,-0.3034 4.32439,2.27022 4.91577,2.11457 0.59139,-0.15564 2.62645,-4.26322 3.23797,-4.26049 0.61152,0.003 2.60993,4.12826 3.1999,4.28916 0.58998,0.1609 4.40619,-2.37883 4.93442,-2.07072 0.52822,0.30812 0.19612,4.88015 0.62661,5.31448 0.43048,0.43433 5.00528,0.14296 5.30868,0.67391 0.3034,0.53095 -2.27022,4.32439 -2.11457,4.91578 0.15564,0.59139 4.26322,2.62645 4.2605,3.23797 -0.003,0.61152 -4.12827,2.60992 -4.28917,3.1999 -0.1609,0.58998 2.37883,4.40618 2.07072,4.93441 -0.30812,0.52823 -4.88014,0.19613 -5.31448,0.62661 -0.43433,0.43049 -0.14296,5.00529 -0.67391,5.30869 z"
       transform="matrix(1.217063,0,0,1.2480719,-63.340803,-44.018987)" />
    <path
       transform="matrix(1.217063,0,0,1.2480719,138.68971,89.321149)"
       d="m 316.17775,207.87465 c -0.53095,0.3034 -4.32439,-2.27022 -4.91578,-2.11458 -0.59139,0.15565 -2.62645,4.26322 -3.23797,4.2605 -0.61152,-0.003 -2.60992,-4.12826 -3.1999,-4.28916 -0.58997,-0.16091 -4.40618,2.37883 -4.93441,2.07071 -0.52823,-0.30811 -0.19613,-4.88014 -0.62661,-5.31447 -0.43049,-0.43434 -5.00529,-0.14297 -5.30869,-0.67392 -0.3034,-0.53095 2.27022,-4.32439 2.11458,-4.91577 -0.15565,-0.59139 -4.26322,-2.62645 -4.2605,-3.23797 0.003,-0.61152 4.12826,-2.60993 4.28916,-3.1999 0.16091,-0.58998 -2.37883,-4.40619 -2.07071,-4.93441 0.30811,-0.52823 4.88014,-0.19613 5.31447,-0.62662 0.43434,-0.43048 0.14297,-5.00528 0.67392,-5.30868 0.53095,-0.3034 4.32439,2.27022 4.91577,2.11457 0.59139,-0.15564 2.62645,-4.26322 3.23797,-4.26049 0.61152,0.003 2.60993,4.12826 3.1999,4.28916 0.58998,0.1609 4.40619,-2.37883 4.93442,-2.07072 0.52822,0.30812 0.19612,4.88015 0.62661,5.31448 0.43048,0.43433 5.00528,0.14296 5.30868,0.67391 0.3034,0.53095 -2.27022,4.32439 -2.11457,4.91578 0.15564,0.59139 4.26322,2.62645 4.2605,3.23797 -0.003,0.61152 -4.12827,2.60992 -4.28917,3.1999 -0.1609,0.58998 2.37883,4.40618 2.07072,4.93441 -0.30812,0.52823 -4.88014,0.19613 -5.31448,0.62661 -0.43433,0.43049 -0.14296,5.00529 -0.67391,5.30869 z"
       inkscape:randomized="0"
       inkscape:rounded="0.114276"
       inkscape:flatsided="false"
       sodipodi:arg2="1.3134496"
       sodipodi:arg1="1.0516502"
       sodipodi:r2="12.437131"
       sodipodi:r1="16.288219"
       sodipodi:cy="193.73251"
       sodipodi:cx="308.09653"
       sodipodi:sides="12"
       id="path4588"
       style="opacity:1;fill:#fffac5;fill-opacity:1;stroke:none;stroke-width:19.70000076;stroke-linejoin:round;stroke-miterlimit:4;stroke-dasharray:none;stroke-opacity:1"
       sodipodi:type="star" />
    <path
       sodipodi:type="star"
       style="opacity:1;fill:#f8c5fd;fill-opacity:1;stroke:none;stroke-width:19.70000076;stroke-linejoin:round;stroke-miterlimit:4;stroke-dasharray:none;stroke-opacity:1"
       id="path4590"
       sodipodi:sides="12"
       sodipodi:cx="308.09653"
       sodipodi:cy="193.73251"
       sodipodi:r1="16.288219"
       sodipodi:r2="12.437131"
       sodipodi:arg1="1.0516502"
       sodipodi:arg2="1.3134496"
       inkscape:flatsided="false"
       inkscape:rounded="0.114276"
       inkscape:randomized="0"
       d="m 316.17775,207.87465 c -0.53095,0.3034 -4.32439,-2.27022 -4.91578,-2.11458 -0.59139,0.15565 -2.62645,4.26322 -3.23797,4.2605 -0.61152,-0.003 -2.60992,-4.12826 -3.1999,-4.28916 -0.58997,-0.16091 -4.40618,2.37883 -4.93441,2.07071 -0.52823,-0.30811 -0.19613,-4.88014 -0.62661,-5.31447 -0.43049,-0.43434 -5.00529,-0.14297 -5.30869,-0.67392 -0.3034,-0.53095 2.27022,-4.32439 2.11458,-4.91577 -0.15565,-0.59139 -4.26322,-2.62645 -4.2605,-3.23797 0.003,-0.61152 4.12826,-2.60993 4.28916,-3.1999 0.16091,-0.58998 -2.37883,-4.40619 -2.07071,-4.93441 0.30811,-0.52823 4.88014,-0.19613 5.31447,-0.62662 0.43434,-0.43048 0.14297,-5.00528 0.67392,-5.30868 0.53095,-0.3034 4.32439,2.27022 4.91577,2.11457 0.59139,-0.15564 2.62645,-4.26322 3.23797,-4.26049 0.61152,0.003 2.60993,4.12826 3.1999,4.28916 0.58998,0.1609 4.40619,-2.37883 4.93442,-2.07072 0.52822,0.30812 0.19612,4.88015 0.62661,5.31448 0.43048,0.43433 5.00528,0.14296 5.30868,0.67391 0.3034,0.53095 -2.27022,4.32439 -2.11457,4.91578 0.15564,0.59139 4.26322,2.62645 4.2605,3.23797 -0.003,0.61152 -4.12827,2.60992 -4.28917,3.1999 -0.1609,0.58998 2.37883,4.40618 2.07072,4.93441 -0.30812,0.52823 -4.88014,0.19613 -5.31448,0.62661 -0.43433,0.43049 -0.14296,5.00529 -0.67391,5.30869 z"
       transform="matrix(1.217063,0,0,1.2480719,524.56798,-41.998682)" />
    <path
       transform="matrix(1.217063,0,0,1.2480719,884.18229,232.76281)"
       d="m 316.17775,207.87465 c -0.53095,0.3034 -4.32439,-2.27022 -4.91578,-2.11458 -0.59139,0.15565 -2.62645,4.26322 -3.23797,4.2605 -0.61152,-0.003 -2.60992,-4.12826 -3.1999,-4.28916 -0.58997,-0.16091 -4.40618,2.37883 -4.93441,2.07071 -0.52823,-0.30811 -0.19613,-4.88014 -0.62661,-5.31447 -0.43049,-0.43434 -5.00529,-0.14297 -5.30869,-0.67392 -0.3034,-0.53095 2.27022,-4.32439 2.11458,-4.91577 -0.15565,-0.59139 -4.26322,-2.62645 -4.2605,-3.23797 0.003,-0.61152 4.12826,-2.60993 4.28916,-3.1999 0.16091,-0.58998 -2.37883,-4.40619 -2.07071,-4.93441 0.30811,-0.52823 4.88014,-0.19613 5.31447,-0.62662 0.43434,-0.43048 0.14297,-5.00528 0.67392,-5.30868 0.53095,-0.3034 4.32439,2.27022 4.91577,2.11457 0.59139,-0.15564 2.62645,-4.26322 3.23797,-4.26049 0.61152,0.003 2.60993,4.12826 3.1999,4.28916 0.58998,0.1609 4.40619,-2.37883 4.93442,-2.07072 0.52822,0.30812 0.19612,4.88015 0.62661,5.31448 0.43048,0.43433 5.00528,0.14296 5.30868,0.67391 0.3034,0.53095 -2.27022,4.32439 -2.11457,4.91578 0.15564,0.59139 4.26322,2.62645 4.2605,3.23797 -0.003,0.61152 -4.12827,2.60992 -4.28917,3.1999 -0.1609,0.58998 2.37883,4.40618 2.07072,4.93441 -0.30812,0.52823 -4.88014,0.19613 -5.31448,0.62661 -0.43433,0.43049 -0.14296,5.00529 -0.67391,5.30869 z"
       inkscape:randomized="0"
       inkscape:rounded="0.114276"
       inkscape:flatsided="false"
       sodipodi:arg2="1.3134496"
       sodipodi:arg1="1.0516502"
       sodipodi:r2="12.437131"
       sodipodi:r1="16.288219"
       sodipodi:cy="193.73251"
       sodipodi:cx="308.09653"
       sodipodi:sides="12"
       id="path4592"
       style="opacity:1;fill:#a0ffe9;fill-opacity:1;stroke:none;stroke-width:19.70000076;stroke-linejoin:round;stroke-miterlimit:4;stroke-dasharray:none;stroke-opacity:1"
       sodipodi:type="star" />
    <path
       sodipodi:type="star"
       style="opacity:1;fill:#fffac5;fill-opacity:1;stroke:none;stroke-width:19.70000076;stroke-linejoin:round;stroke-miterlimit:4;stroke-dasharray:none;stroke-opacity:1"
       id="path4594"
       sodipodi:sides="12"
       sodipodi:cx="308.09653"
       sodipodi:cy="193.73251"
       sodipodi:r1="16.288219"
       sodipodi:r2="12.437131"
       sodipodi:arg1="1.0516502"
       sodipodi:arg2="1.3134496"
       inkscape:flatsided="false"
       inkscape:rounded="0.114276"
       inkscape:randomized="0"
       d="m 316.17775,207.87465 c -0.53095,0.3034 -4.32439,-2.27022 -4.91578,-2.11458 -0.59139,0.15565 -2.62645,4.26322 -3.23797,4.2605 -0.61152,-0.003 -2.60992,-4.12826 -3.1999,-4.28916 -0.58997,-0.16091 -4.40618,2.37883 -4.93441,2.07071 -0.52823,-0.30811 -0.19613,-4.88014 -0.62661,-5.31447 -0.43049,-0.43434 -5.00529,-0.14297 -5.30869,-0.67392 -0.3034,-0.53095 2.27022,-4.32439 2.11458,-4.91577 -0.15565,-0.59139 -4.26322,-2.62645 -4.2605,-3.23797 0.003,-0.61152 4.12826,-2.60993 4.28916,-3.1999 0.16091,-0.58998 -2.37883,-4.40619 -2.07071,-4.93441 0.30811,-0.52823 4.88014,-0.19613 5.31447,-0.62662 0.43434,-0.43048 0.14297,-5.00528 0.67392,-5.30868 0.53095,-0.3034 4.32439,2.27022 4.91577,2.11457 0.59139,-0.15564 2.62645,-4.26322 3.23797,-4.26049 0.61152,0.003 2.60993,4.12826 3.1999,4.28916 0.58998,0.1609 4.40619,-2.37883 4.93442,-2.07072 0.52822,0.30812 0.19612,4.88015 0.62661,5.31448 0.43048,0.43433 5.00528,0.14296 5.30868,0.67391 0.3034,0.53095 -2.27022,4.32439 -2.11457,4.91578 0.15564,0.59139 4.26322,2.62645 4.2605,3.23797 -0.003,0.61152 -4.12827,2.60992 -4.28917,3.1999 -0.1609,0.58998 2.37883,4.40618 2.07072,4.93441 -0.30812,0.52823 -4.88014,0.19613 -5.31448,0.62661 -0.43433,0.43049 -0.14296,5.00529 -0.67391,5.30869 z"
       transform="matrix(1.217063,0,0,1.2480719,665.98934,89.321149)" />
    <path
       transform="matrix(1.217063,0,0,1.2480719,413.4512,200.43793)"
       d="m 316.17775,207.87465 c -0.53095,0.3034 -4.32439,-2.27022 -4.91578,-2.11458 -0.59139,0.15565 -2.62645,4.26322 -3.23797,4.2605 -0.61152,-0.003 -2.60992,-4.12826 -3.1999,-4.28916 -0.58997,-0.16091 -4.40618,2.37883 -4.93441,2.07071 -0.52823,-0.30811 -0.19613,-4.88014 -0.62661,-5.31447 -0.43049,-0.43434 -5.00529,-0.14297 -5.30869,-0.67392 -0.3034,-0.53095 2.27022,-4.32439 2.11458,-4.91577 -0.15565,-0.59139 -4.26322,-2.62645 -4.2605,-3.23797 0.003,-0.61152 4.12826,-2.60993 4.28916,-3.1999 0.16091,-0.58998 -2.37883,-4.40619 -2.07071,-4.93441 0.30811,-0.52823 4.88014,-0.19613 5.31447,-0.62662 0.43434,-0.43048 0.14297,-5.00528 0.67392,-5.30868 0.53095,-0.3034 4.32439,2.27022 4.91577,2.11457 0.59139,-0.15564 2.62645,-4.26322 3.23797,-4.26049 0.61152,0.003 2.60993,4.12826 3.1999,4.28916 0.58998,0.1609 4.40619,-2.37883 4.93442,-2.07072 0.52822,0.30812 0.19612,4.88015 0.62661,5.31448 0.43048,0.43433 5.00528,0.14296 5.30868,0.67391 0.3034,0.53095 -2.27022,4.32439 -2.11457,4.91578 0.15564,0.59139 4.26322,2.62645 4.2605,3.23797 -0.003,0.61152 -4.12827,2.60992 -4.28917,3.1999 -0.1609,0.58998 2.37883,4.40618 2.07072,4.93441 -0.30812,0.52823 -4.88014,0.19613 -5.31448,0.62661 -0.43433,0.43049 -0.14296,5.00529 -0.67391,5.30869 z"
       inkscape:randomized="0"
       inkscape:rounded="0.114276"
       inkscape:flatsided="false"
       sodipodi:arg2="1.3134496"
       sodipodi:arg1="1.0516502"
       sodipodi:r2="12.437131"
       sodipodi:r1="16.288219"
       sodipodi:cy="193.73251"
       sodipodi:cx="308.09653"
       sodipodi:sides="12"
       id="path4596"
       style="opacity:1;fill:#f8c5fd;fill-opacity:1;stroke:none;stroke-width:19.70000076;stroke-linejoin:round;stroke-miterlimit:4;stroke-dasharray:none;stroke-opacity:1"
       sodipodi:type="star" />
    <path
       sodipodi:type="star"
       style="opacity:1;fill:#a0ffca;fill-opacity:1;stroke:none;stroke-width:19.70000076;stroke-linejoin:round;stroke-miterlimit:4;stroke-dasharray:none;stroke-opacity:1"
       id="path4598"
       sodipodi:sides="12"
       sodipodi:cx="308.09653"
       sodipodi:cy="193.73251"
       sodipodi:r1="16.288219"
       sodipodi:r2="12.437131"
       sodipodi:arg1="1.0516502"
       sodipodi:arg2="1.3134496"
       inkscape:flatsided="false"
       inkscape:rounded="0.114276"
       inkscape:randomized="0"
       d="m 316.17775,207.87465 c -0.53095,0.3034 -4.32439,-2.27022 -4.91578,-2.11458 -0.59139,0.15565 -2.62645,4.26322 -3.23797,4.2605 -0.61152,-0.003 -2.60992,-4.12826 -3.1999,-4.28916 -0.58997,-0.16091 -4.40618,2.37883 -4.93441,2.07071 -0.52823,-0.30811 -0.19613,-4.88014 -0.62661,-5.31447 -0.43049,-0.43434 -5.00529,-0.14297 -5.30869,-0.67392 -0.3034,-0.53095 2.27022,-4.32439 2.11458,-4.91577 -0.15565,-0.59139 -4.26322,-2.62645 -4.2605,-3.23797 0.003,-0.61152 4.12826,-2.60993 4.28916,-3.1999 0.16091,-0.58998 -2.37883,-4.40619 -2.07071,-4.93441 0.30811,-0.52823 4.88014,-0.19613 5.31447,-0.62662 0.43434,-0.43048 0.14297,-5.00528 0.67392,-5.30868 0.53095,-0.3034 4.32439,2.27022 4.91577,2.11457 0.59139,-0.15564 2.62645,-4.26322 3.23797,-4.26049 0.61152,0.003 2.60993,4.12826 3.1999,4.28916 0.58998,0.1609 4.40619,-2.37883 4.93442,-2.07072 0.52822,0.30812 0.19612,4.88015 0.62661,5.31448 0.43048,0.43433 5.00528,0.14296 5.30868,0.67391 0.3034,0.53095 -2.27022,4.32439 -2.11457,4.91578 0.15564,0.59139 4.26322,2.62645 4.2605,3.23797 -0.003,0.61152 -4.12827,2.60992 -4.28917,3.1999 -0.1609,0.58998 2.37883,4.40618 2.07072,4.93441 -0.30812,0.52823 -4.88014,0.19613 -5.31448,0.62661 -0.43433,0.43049 -0.14296,5.00529 -0.67391,5.30869 z"
       transform="matrix(1.217063,0,0,1.2480719,1181.1671,-122.81088)" />
    <path
       transform="matrix(1.217063,0,0,1.2480719,1223.5935,105.4836)"
       d="m 316.17775,207.87465 c -0.53095,0.3034 -4.32439,-2.27022 -4.91578,-2.11458 -0.59139,0.15565 -2.62645,4.26322 -3.23797,4.2605 -0.61152,-0.003 -2.60992,-4.12826 -3.1999,-4.28916 -0.58997,-0.16091 -4.40618,2.37883 -4.93441,2.07071 -0.52823,-0.30811 -0.19613,-4.88014 -0.62661,-5.31447 -0.43049,-0.43434 -5.00529,-0.14297 -5.30869,-0.67392 -0.3034,-0.53095 2.27022,-4.32439 2.11458,-4.91577 -0.15565,-0.59139 -4.26322,-2.62645 -4.2605,-3.23797 0.003,-0.61152 4.12826,-2.60993 4.28916,-3.1999 0.16091,-0.58998 -2.37883,-4.40619 -2.07071,-4.93441 0.30811,-0.52823 4.88014,-0.19613 5.31447,-0.62662 0.43434,-0.43048 0.14297,-5.00528 0.67392,-5.30868 0.53095,-0.3034 4.32439,2.27022 4.91577,2.11457 0.59139,-0.15564 2.62645,-4.26322 3.23797,-4.26049 0.61152,0.003 2.60993,4.12826 3.1999,4.28916 0.58998,0.1609 4.40619,-2.37883 4.93442,-2.07072 0.52822,0.30812 0.19612,4.88015 0.62661,5.31448 0.43048,0.43433 5.00528,0.14296 5.30868,0.67391 0.3034,0.53095 -2.27022,4.32439 -2.11457,4.91578 0.15564,0.59139 4.26322,2.62645 4.2605,3.23797 -0.003,0.61152 -4.12827,2.60992 -4.28917,3.1999 -0.1609,0.58998 2.37883,4.40618 2.07072,4.93441 -0.30812,0.52823 -4.88014,0.19613 -5.31448,0.62661 -0.43433,0.43049 -0.14296,5.00529 -0.67391,5.30869 z"
       inkscape:randomized="0"
       inkscape:rounded="0.114276"
       inkscape:flatsided="false"
       sodipodi:arg2="1.3134496"
       sodipodi:arg1="1.0516502"
       sodipodi:r2="12.437131"
       sodipodi:r1="16.288219"
       sodipodi:cy="193.73251"
       sodipodi:cx="308.09653"
       sodipodi:sides="12"
       id="path4600"
       style="opacity:1;fill:#a0ffe9;fill-opacity:1;stroke:none;stroke-width:19.70000076;stroke-linejoin:round;stroke-miterlimit:4;stroke-dasharray:none;stroke-opacity:1"
       sodipodi:type="star" />
    <path
       sodipodi:type="star"
       style="opacity:1;fill:#a0ffe9;fill-opacity:1;stroke:none;stroke-width:19.70000076;stroke-linejoin:round;stroke-miterlimit:4;stroke-dasharray:none;stroke-opacity:1"
       id="path4602"
       sodipodi:sides="12"
       sodipodi:cx="308.09653"
       sodipodi:cy="193.73251"
       sodipodi:r1="16.288219"
       sodipodi:r2="12.437131"
       sodipodi:arg1="1.0516502"
       sodipodi:arg2="1.3134496"
       inkscape:flatsided="false"
       inkscape:rounded="0.114276"
       inkscape:randomized="0"
       d="m 316.17775,207.87465 c -0.53095,0.3034 -4.32439,-2.27022 -4.91578,-2.11458 -0.59139,0.15565 -2.62645,4.26322 -3.23797,4.2605 -0.61152,-0.003 -2.60992,-4.12826 -3.1999,-4.28916 -0.58997,-0.16091 -4.40618,2.37883 -4.93441,2.07071 -0.52823,-0.30811 -0.19613,-4.88014 -0.62661,-5.31447 -0.43049,-0.43434 -5.00529,-0.14297 -5.30869,-0.67392 -0.3034,-0.53095 2.27022,-4.32439 2.11458,-4.91577 -0.15565,-0.59139 -4.26322,-2.62645 -4.2605,-3.23797 0.003,-0.61152 4.12826,-2.60993 4.28916,-3.1999 0.16091,-0.58998 -2.37883,-4.40619 -2.07071,-4.93441 0.30811,-0.52823 4.88014,-0.19613 5.31447,-0.62662 0.43434,-0.43048 0.14297,-5.00528 0.67392,-5.30868 0.53095,-0.3034 4.32439,2.27022 4.91577,2.11457 0.59139,-0.15564 2.62645,-4.26322 3.23797,-4.26049 0.61152,0.003 2.60993,4.12826 3.1999,4.28916 0.58998,0.1609 4.40619,-2.37883 4.93442,-2.07072 0.52822,0.30812 0.19612,4.88015 0.62661,5.31448 0.43048,0.43433 5.00528,0.14296 5.30868,0.67391 0.3034,0.53095 -2.27022,4.32439 -2.11457,4.91578 0.15564,0.59139 4.26322,2.62645 4.2605,3.23797 -0.003,0.61152 -4.12827,2.60992 -4.28917,3.1999 -0.1609,0.58998 2.37883,4.40618 2.07072,4.93441 -0.30812,0.52823 -4.88014,0.19613 -5.31448,0.62661 -0.43433,0.43049 -0.14296,5.00529 -0.67391,5.30869 z"
       transform="matrix(1.217063,0,0,1.2480719,1395.3194,-33.917451)" />
    <path
       transform="matrix(1.217063,0,0,1.2480719,865.99947,-165.23728)"
       d="m 316.17775,207.87465 c -0.53095,0.3034 -4.32439,-2.27022 -4.91578,-2.11458 -0.59139,0.15565 -2.62645,4.26322 -3.23797,4.2605 -0.61152,-0.003 -2.60992,-4.12826 -3.1999,-4.28916 -0.58997,-0.16091 -4.40618,2.37883 -4.93441,2.07071 -0.52823,-0.30811 -0.19613,-4.88014 -0.62661,-5.31447 -0.43049,-0.43434 -5.00529,-0.14297 -5.30869,-0.67392 -0.3034,-0.53095 2.27022,-4.32439 2.11458,-4.91577 -0.15565,-0.59139 -4.26322,-2.62645 -4.2605,-3.23797 0.003,-0.61152 4.12826,-2.60993 4.28916,-3.1999 0.16091,-0.58998 -2.37883,-4.40619 -2.07071,-4.93441 0.30811,-0.52823 4.88014,-0.19613 5.31447,-0.62662 0.43434,-0.43048 0.14297,-5.00528 0.67392,-5.30868 0.53095,-0.3034 4.32439,2.27022 4.91577,2.11457 0.59139,-0.15564 2.62645,-4.26322 3.23797,-4.26049 0.61152,0.003 2.60993,4.12826 3.1999,4.28916 0.58998,0.1609 4.40619,-2.37883 4.93442,-2.07072 0.52822,0.30812 0.19612,4.88015 0.62661,5.31448 0.43048,0.43433 5.00528,0.14296 5.30868,0.67391 0.3034,0.53095 -2.27022,4.32439 -2.11457,4.91578 0.15564,0.59139 4.26322,2.62645 4.2605,3.23797 -0.003,0.61152 -4.12827,2.60992 -4.28917,3.1999 -0.1609,0.58998 2.37883,4.40618 2.07072,4.93441 -0.30812,0.52823 -4.88014,0.19613 -5.31448,0.62661 -0.43433,0.43049 -0.14296,5.00529 -0.67391,5.30869 z"
       inkscape:randomized="0"
       inkscape:rounded="0.114276"
       inkscape:flatsided="false"
       sodipodi:arg2="1.3134496"
       sodipodi:arg1="1.0516502"
       sodipodi:r2="12.437131"
       sodipodi:r1="16.288219"
       sodipodi:cy="193.73251"
       sodipodi:cx="308.09653"
       sodipodi:sides="12"
       id="path4604"
       style="opacity:1;fill:#a0ffe9;fill-opacity:1;stroke:none;stroke-width:19.70000076;stroke-linejoin:round;stroke-miterlimit:4;stroke-dasharray:none;stroke-opacity:1"
       sodipodi:type="star" />
    <path
       sodipodi:type="star"
       style="opacity:1;fill:#a0ffe9;fill-opacity:1;stroke:none;stroke-width:19.70000076;stroke-linejoin:round;stroke-miterlimit:4;stroke-dasharray:none;stroke-opacity:1"
       id="path4606"
       sodipodi:sides="12"
       sodipodi:cx="308.09653"
       sodipodi:cy="193.73251"
       sodipodi:r1="16.288219"
       sodipodi:r2="12.437131"
       sodipodi:arg1="1.0516502"
       sodipodi:arg2="1.3134496"
       inkscape:flatsided="false"
       inkscape:rounded="0.114276"
       inkscape:randomized="0"
       d="m 316.17775,207.87465 c -0.53095,0.3034 -4.32439,-2.27022 -4.91578,-2.11458 -0.59139,0.15565 -2.62645,4.26322 -3.23797,4.2605 -0.61152,-0.003 -2.60992,-4.12826 -3.1999,-4.28916 -0.58997,-0.16091 -4.40618,2.37883 -4.93441,2.07071 -0.52823,-0.30811 -0.19613,-4.88014 -0.62661,-5.31447 -0.43049,-0.43434 -5.00529,-0.14297 -5.30869,-0.67392 -0.3034,-0.53095 2.27022,-4.32439 2.11458,-4.91577 -0.15565,-0.59139 -4.26322,-2.62645 -4.2605,-3.23797 0.003,-0.61152 4.12826,-2.60993 4.28916,-3.1999 0.16091,-0.58998 -2.37883,-4.40619 -2.07071,-4.93441 0.30811,-0.52823 4.88014,-0.19613 5.31447,-0.62662 0.43434,-0.43048 0.14297,-5.00528 0.67392,-5.30868 0.53095,-0.3034 4.32439,2.27022 4.91577,2.11457 0.59139,-0.15564 2.62645,-4.26322 3.23797,-4.26049 0.61152,0.003 2.60993,4.12826 3.1999,4.28916 0.58998,0.1609 4.40619,-2.37883 4.93442,-2.07072 0.52822,0.30812 0.19612,4.88015 0.62661,5.31448 0.43048,0.43433 5.00528,0.14296 5.30868,0.67391 0.3034,0.53095 -2.27022,4.32439 -2.11457,4.91578 0.15564,0.59139 4.26322,2.62645 4.2605,3.23797 -0.003,0.61152 -4.12827,2.60992 -4.28917,3.1999 -0.1609,0.58998 2.37883,4.40618 2.07072,4.93441 -0.30812,0.52823 -4.88014,0.19613 -5.31448,0.62661 -0.43433,0.43049 -0.14296,5.00529 -0.67391,5.30869 z"
       transform="matrix(1.217063,0,0,1.2480719,944.79139,20.630788)" />
    <path
       transform="matrix(1.217063,0,0,1.2480719,1496.3347,-187.46064)"
       d="m 316.17775,207.87465 c -0.53095,0.3034 -4.32439,-2.27022 -4.91578,-2.11458 -0.59139,0.15565 -2.62645,4.26322 -3.23797,4.2605 -0.61152,-0.003 -2.60992,-4.12826 -3.1999,-4.28916 -0.58997,-0.16091 -4.40618,2.37883 -4.93441,2.07071 -0.52823,-0.30811 -0.19613,-4.88014 -0.62661,-5.31447 -0.43049,-0.43434 -5.00529,-0.14297 -5.30869,-0.67392 -0.3034,-0.53095 2.27022,-4.32439 2.11458,-4.91577 -0.15565,-0.59139 -4.26322,-2.62645 -4.2605,-3.23797 0.003,-0.61152 4.12826,-2.60993 4.28916,-3.1999 0.16091,-0.58998 -2.37883,-4.40619 -2.07071,-4.93441 0.30811,-0.52823 4.88014,-0.19613 5.31447,-0.62662 0.43434,-0.43048 0.14297,-5.00528 0.67392,-5.30868 0.53095,-0.3034 4.32439,2.27022 4.91577,2.11457 0.59139,-0.15564 2.62645,-4.26322 3.23797,-4.26049 0.61152,0.003 2.60993,4.12826 3.1999,4.28916 0.58998,0.1609 4.40619,-2.37883 4.93442,-2.07072 0.52822,0.30812 0.19612,4.88015 0.62661,5.31448 0.43048,0.43433 5.00528,0.14296 5.30868,0.67391 0.3034,0.53095 -2.27022,4.32439 -2.11457,4.91578 0.15564,0.59139 4.26322,2.62645 4.2605,3.23797 -0.003,0.61152 -4.12827,2.60992 -4.28917,3.1999 -0.1609,0.58998 2.37883,4.40618 2.07072,4.93441 -0.30812,0.52823 -4.88014,0.19613 -5.31448,0.62661 -0.43433,0.43049 -0.14296,5.00529 -0.67391,5.30869 z"
       inkscape:randomized="0"
       inkscape:rounded="0.114276"
       inkscape:flatsided="false"
       sodipodi:arg2="1.3134496"
       sodipodi:arg1="1.0516502"
       sodipodi:r2="12.437131"
       sodipodi:r1="16.288219"
       sodipodi:cy="193.73251"
       sodipodi:cx="308.09653"
       sodipodi:sides="12"
       id="path4608"
       style="opacity:1;fill:#ffd4a0;fill-opacity:1;stroke:none;stroke-width:19.70000076;stroke-linejoin:round;stroke-miterlimit:4;stroke-dasharray:none;stroke-opacity:1"
       sodipodi:type="star" />
    <path
       sodipodi:type="star"
       style="opacity:1;fill:#a0ffca;fill-opacity:1;stroke:none;stroke-width:19.70000076;stroke-linejoin:round;stroke-miterlimit:4;stroke-dasharray:none;stroke-opacity:1"
       id="path4610"
       sodipodi:sides="12"
       sodipodi:cx="308.09653"
       sodipodi:cy="193.73251"
       sodipodi:r1="16.288219"
       sodipodi:r2="12.437131"
       sodipodi:arg1="1.0516502"
       sodipodi:arg2="1.3134496"
       inkscape:flatsided="false"
       inkscape:rounded="0.114276"
       inkscape:randomized="0"
       d="m 316.17775,207.87465 c -0.53095,0.3034 -4.32439,-2.27022 -4.91578,-2.11458 -0.59139,0.15565 -2.62645,4.26322 -3.23797,4.2605 -0.61152,-0.003 -2.60992,-4.12826 -3.1999,-4.28916 -0.58997,-0.16091 -4.40618,2.37883 -4.93441,2.07071 -0.52823,-0.30811 -0.19613,-4.88014 -0.62661,-5.31447 -0.43049,-0.43434 -5.00529,-0.14297 -5.30869,-0.67392 -0.3034,-0.53095 2.27022,-4.32439 2.11458,-4.91577 -0.15565,-0.59139 -4.26322,-2.62645 -4.2605,-3.23797 0.003,-0.61152 4.12826,-2.60993 4.28916,-3.1999 0.16091,-0.58998 -2.37883,-4.40619 -2.07071,-4.93441 0.30811,-0.52823 4.88014,-0.19613 5.31447,-0.62662 0.43434,-0.43048 0.14297,-5.00528 0.67392,-5.30868 0.53095,-0.3034 4.32439,2.27022 4.91577,2.11457 0.59139,-0.15564 2.62645,-4.26322 3.23797,-4.26049 0.61152,0.003 2.60993,4.12826 3.1999,4.28916 0.58998,0.1609 4.40619,-2.37883 4.93442,-2.07072 0.52822,0.30812 0.19612,4.88015 0.62661,5.31448 0.43048,0.43433 5.00528,0.14296 5.30868,0.67391 0.3034,0.53095 -2.27022,4.32439 -2.11457,4.91578 0.15564,0.59139 4.26322,2.62645 4.2605,3.23797 -0.003,0.61152 -4.12827,2.60992 -4.28917,3.1999 -0.1609,0.58998 2.37883,4.40618 2.07072,4.93441 -0.30812,0.52823 -4.88014,0.19613 -5.31448,0.62661 -0.43433,0.43049 -0.14296,5.00529 -0.67391,5.30869 z"
       transform="matrix(1.217063,0,0,1.2480719,213.44097,-193.52156)" />
    <path
       transform="matrix(1.217063,0,0,1.2480719,-245.16829,-191.50125)"
       d="m 316.17775,207.87465 c -0.53095,0.3034 -4.32439,-2.27022 -4.91578,-2.11458 -0.59139,0.15565 -2.62645,4.26322 -3.23797,4.2605 -0.61152,-0.003 -2.60992,-4.12826 -3.1999,-4.28916 -0.58997,-0.16091 -4.40618,2.37883 -4.93441,2.07071 -0.52823,-0.30811 -0.19613,-4.88014 -0.62661,-5.31447 -0.43049,-0.43434 -5.00529,-0.14297 -5.30869,-0.67392 -0.3034,-0.53095 2.27022,-4.32439 2.11458,-4.91577 -0.15565,-0.59139 -4.26322,-2.62645 -4.2605,-3.23797 0.003,-0.61152 4.12826,-2.60993 4.28916,-3.1999 0.16091,-0.58998 -2.37883,-4.40619 -2.07071,-4.93441 0.30811,-0.52823 4.88014,-0.19613 5.31447,-0.62662 0.43434,-0.43048 0.14297,-5.00528 0.67392,-5.30868 0.53095,-0.3034 4.32439,2.27022 4.91577,2.11457 0.59139,-0.15564 2.62645,-4.26322 3.23797,-4.26049 0.61152,0.003 2.60993,4.12826 3.1999,4.28916 0.58998,0.1609 4.40619,-2.37883 4.93442,-2.07072 0.52822,0.30812 0.19612,4.88015 0.62661,5.31448 0.43048,0.43433 5.00528,0.14296 5.30868,0.67391 0.3034,0.53095 -2.27022,4.32439 -2.11457,4.91578 0.15564,0.59139 4.26322,2.62645 4.2605,3.23797 -0.003,0.61152 -4.12827,2.60992 -4.28917,3.1999 -0.1609,0.58998 2.37883,4.40618 2.07072,4.93441 -0.30812,0.52823 -4.88014,0.19613 -5.31448,0.62661 -0.43433,0.43049 -0.14296,5.00529 -0.67391,5.30869 z"
       inkscape:randomized="0"
       inkscape:rounded="0.114276"
       inkscape:flatsided="false"
       sodipodi:arg2="1.3134496"
       sodipodi:arg1="1.0516502"
       sodipodi:r2="12.437131"
       sodipodi:r1="16.288219"
       sodipodi:cy="193.73251"
       sodipodi:cx="308.09653"
       sodipodi:sides="12"
       id="path4612"
       style="opacity:1;fill:#f8c5fd;fill-opacity:1;stroke:none;stroke-width:19.70000076;stroke-linejoin:round;stroke-miterlimit:4;stroke-dasharray:none;stroke-opacity:1"
       sodipodi:type="star" />
    <path
       sodipodi:type="star"
       style="opacity:1;fill:#a0ffca;fill-opacity:1;stroke:none;stroke-width:19.70000076;stroke-linejoin:round;stroke-miterlimit:4;stroke-dasharray:none;stroke-opacity:1"
       id="path4614"
       sodipodi:sides="12"
       sodipodi:cx="308.09653"
       sodipodi:cy="193.73251"
       sodipodi:r1="16.288219"
       sodipodi:r2="12.437131"
       sodipodi:arg1="1.0516502"
       sodipodi:arg2="1.3134496"
       inkscape:flatsided="false"
       inkscape:rounded="0.114276"
       inkscape:randomized="0"
       d="m 316.17775,207.87465 c -0.53095,0.3034 -4.32439,-2.27022 -4.91578,-2.11458 -0.59139,0.15565 -2.62645,4.26322 -3.23797,4.2605 -0.61152,-0.003 -2.60992,-4.12826 -3.1999,-4.28916 -0.58997,-0.16091 -4.40618,2.37883 -4.93441,2.07071 -0.52823,-0.30811 -0.19613,-4.88014 -0.62661,-5.31447 -0.43049,-0.43434 -5.00529,-0.14297 -5.30869,-0.67392 -0.3034,-0.53095 2.27022,-4.32439 2.11458,-4.91577 -0.15565,-0.59139 -4.26322,-2.62645 -4.2605,-3.23797 0.003,-0.61152 4.12826,-2.60993 4.28916,-3.1999 0.16091,-0.58998 -2.37883,-4.40619 -2.07071,-4.93441 0.30811,-0.52823 4.88014,-0.19613 5.31447,-0.62662 0.43434,-0.43048 0.14297,-5.00528 0.67392,-5.30868 0.53095,-0.3034 4.32439,2.27022 4.91577,2.11457 0.59139,-0.15564 2.62645,-4.26322 3.23797,-4.26049 0.61152,0.003 2.60993,4.12826 3.1999,4.28916 0.58998,0.1609 4.40619,-2.37883 4.93442,-2.07072 0.52822,0.30812 0.19612,4.88015 0.62661,5.31448 0.43048,0.43433 5.00528,0.14296 5.30868,0.67391 0.3034,0.53095 -2.27022,4.32439 -2.11457,4.91578 0.15564,0.59139 4.26322,2.62645 4.2605,3.23797 -0.003,0.61152 -4.12827,2.60992 -4.28917,3.1999 -0.1609,0.58998 2.37883,4.40618 2.07072,4.93441 -0.30812,0.52823 -4.88014,0.19613 -5.31448,0.62661 -0.43433,0.43049 -0.14296,5.00529 -0.67391,5.30869 z"
       transform="matrix(1.217063,0,0,1.2480719,-233.04646,139.82878)" />
    <path
       transform="matrix(1.217063,0,0,1.2480719,1453.9083,170.13336)"
       d="m 316.17775,207.87465 c -0.53095,0.3034 -4.32439,-2.27022 -4.91578,-2.11458 -0.59139,0.15565 -2.62645,4.26322 -3.23797,4.2605 -0.61152,-0.003 -2.60992,-4.12826 -3.1999,-4.28916 -0.58997,-0.16091 -4.40618,2.37883 -4.93441,2.07071 -0.52823,-0.30811 -0.19613,-4.88014 -0.62661,-5.31447 -0.43049,-0.43434 -5.00529,-0.14297 -5.30869,-0.67392 -0.3034,-0.53095 2.27022,-4.32439 2.11458,-4.91577 -0.15565,-0.59139 -4.26322,-2.62645 -4.2605,-3.23797 0.003,-0.61152 4.12826,-2.60993 4.28916,-3.1999 0.16091,-0.58998 -2.37883,-4.40619 -2.07071,-4.93441 0.30811,-0.52823 4.88014,-0.19613 5.31447,-0.62662 0.43434,-0.43048 0.14297,-5.00528 0.67392,-5.30868 0.53095,-0.3034 4.32439,2.27022 4.91577,2.11457 0.59139,-0.15564 2.62645,-4.26322 3.23797,-4.26049 0.61152,0.003 2.60993,4.12826 3.1999,4.28916 0.58998,0.1609 4.40619,-2.37883 4.93442,-2.07072 0.52822,0.30812 0.19612,4.88015 0.62661,5.31448 0.43048,0.43433 5.00528,0.14296 5.30868,0.67391 0.3034,0.53095 -2.27022,4.32439 -2.11457,4.91578 0.15564,0.59139 4.26322,2.62645 4.2605,3.23797 -0.003,0.61152 -4.12827,2.60992 -4.28917,3.1999 -0.1609,0.58998 2.37883,4.40618 2.07072,4.93441 -0.30812,0.52823 -4.88014,0.19613 -5.31448,0.62661 -0.43433,0.43049 -0.14296,5.00529 -0.67391,5.30869 z"
       inkscape:randomized="0"
       inkscape:rounded="0.114276"
       inkscape:flatsided="false"
       sodipodi:arg2="1.3134496"
       sodipodi:arg1="1.0516502"
       sodipodi:r2="12.437131"
       sodipodi:r1="16.288219"
       sodipodi:cy="193.73251"
       sodipodi:cx="308.09653"
       sodipodi:sides="12"
       id="path4616"
       style="opacity:1;fill:#fffac5;fill-opacity:1;stroke:none;stroke-width:19.70000076;stroke-linejoin:round;stroke-miterlimit:4;stroke-dasharray:none;stroke-opacity:1"
       sodipodi:type="star" />
  </g>
</svg>
