<?xml version="1.0" encoding="UTF-8" standalone="no"?>
<!-- Created with Inkscape (http://www.inkscape.org/) -->

<svg
   xmlns:dc="http://purl.org/dc/elements/1.1/"
   xmlns:cc="http://creativecommons.org/ns#"
   xmlns:rdf="http://www.w3.org/1999/02/22-rdf-syntax-ns#"
   xmlns:svg="http://www.w3.org/2000/svg"
   xmlns="http://www.w3.org/2000/svg"
   xmlns:xlink="http://www.w3.org/1999/xlink"
   xmlns:sodipodi="http://sodipodi.sourceforge.net/DTD/sodipodi-0.dtd"
   xmlns:inkscape="http://www.inkscape.org/namespaces/inkscape"
   width="50pt"
   height="50pt"
   viewBox="0 0 62.500002 62.499999"
   id="svg2"
   version="1.1"
   inkscape:version="0.91 r13725"
   sodipodi:docname="player.svg"
   inkscape:export-filename="/projects/TowerJump/resources/player.png"
   inkscape:export-xdpi="90"
   inkscape:export-ydpi="90">
  <defs
     id="defs4">
    <linearGradient
       inkscape:collect="always"
       id="linearGradient4175">
      <stop
         style="stop-color:#ffe000;stop-opacity:1;"
         offset="0"
         id="stop4177" />
      <stop
         style="stop-color:#ff9601;stop-opacity:1"
         offset="1"
         id="stop4179" />
    </linearGradient>
    <linearGradient
       inkscape:collect="always"
       id="linearGradient5587">
      <stop
         style="stop-color:#f8ba32;stop-opacity:1"
         offset="0"
         id="stop5589" />
      <stop
         style="stop-color:#ff9500;stop-opacity:1"
         offset="1"
         id="stop5591" />
    </linearGradient>
    <radialGradient
       inkscape:collect="always"
       xlink:href="#linearGradient5587"
       id="radialGradient5593"
       cx="31.555519"
       cy="996.15283"
       fx="31.555519"
       fy="996.15283"
       r="30.550002"
       gradientUnits="userSpaceOnUse"
       gradientTransform="matrix(0.81243585,0.00347267,-0.00360213,0.84274157,9.5585902,184.89603)" />
    <linearGradient
       inkscape:collect="always"
       xlink:href="#linearGradient4175"
       id="linearGradient4181"
       x1="31.607153"
       y1="1024.505"
       x2="31.619062"
       y2="1030.2015"
       gradientUnits="userSpaceOnUse" />
  </defs>
  <sodipodi:namedview
     id="base"
     pagecolor="#ffffff"
     bordercolor="#666666"
     borderopacity="1.0"
     inkscape:pageopacity="0.0"
     inkscape:pageshadow="2"
     inkscape:zoom="11.001948"
     inkscape:cx="14.529462"
     inkscape:cy="33.254888"
     inkscape:document-units="px"
     inkscape:current-layer="layer1"
     showgrid="false"
     units="pt"
     inkscape:window-width="1911"
     inkscape:window-height="978"
     inkscape:window-x="1287"
     inkscape:window-y="6"
     inkscape:window-maximized="0" />
  <metadata
     id="metadata7">
    <rdf:RDF>
      <cc:Work
         rdf:about="">
        <dc:format>image/svg+xml</dc:format>
        <dc:type
           rdf:resource="http://purl.org/dc/dcmitype/StillImage" />
        <dc:title />
      </cc:Work>
    </rdf:RDF>
  </metadata>
  <g
     inkscape:label="Ebene 1"
     inkscape:groupmode="layer"
     id="layer1"
     transform="translate(0,-989.86222)">
    <ellipse
       style="opacity:1;fill:url(#radialGradient5593);fill-opacity:1;stroke:url(#linearGradient4181);stroke-width:2.00000012;stroke-miterlimit:5;stroke-dasharray:none;stroke-opacity:1;stroke-dashoffset:0"
       id="path4138"
       cx="31.250002"
       cy="1021.1122"
       r="30.000002" />
    <path
       style="fill:none;fill-rule:evenodd;stroke:#ffe000;stroke-width:6.00000048;stroke-linecap:round;stroke-linejoin:miter;stroke-miterlimit:4;stroke-dasharray:none;stroke-opacity:1"
       d="m 32.637587,1024.6399 c 0,0 10.725374,21.6325 -7.816798,12.3615"
       id="path4181"
       inkscape:connector-curvature="0"
       sodipodi:nodetypes="cc" />
    <path
       style="fill:#ffe000;fill-rule:evenodd;stroke:none;stroke-width:1px;stroke-linecap:butt;stroke-linejoin:miter;stroke-opacity:1;fill-opacity:1"
       d="m 2.3632179,1011.4604 c 0,0 1.8178599,-2.9086 0.3635719,-5.999 -1.4542879,-3.0903 -3.9083987,-15.99713 3.2721478,-9.54373 7.1805464,6.45343 5.6353654,0.54536 5.8171514,-0.90893 0.181786,-1.45429 1.181609,0.27268 2.090539,0.27268 0.90893,0 1.363395,-3.18126 2.363218,-2.545 0.999823,0.63625 0.90893,1.72696 1.81786,0.54535 0.90893,-1.18161 -0.272679,-1.99964 1.545181,-1.45428 1.81786,0.54535 1.999646,0.99982 3.090362,-0.0909 1.090716,-1.09071 0.727144,-1.54518 2.090539,-1.09071 1.363394,0.45446 2.363217,0.0909 2.999468,-0.27268 0.636251,-0.36357 2.090539,0.18178 1.999646,0.54536 -0.09089,0.36357 -5.271793,1.2725 -5.271793,1.2725 l -4.817329,1.09071 -6.36251,3.45394 -3.181255,3.36299 -2.3632175,2.1815 -2.9085758,4.1811 -1.5451809,4.3628 -0.727144,0.7272 z"
       id="path4149"
       inkscape:connector-curvature="0" />
    <path
       inkscape:connector-curvature="0"
       id="path4151"
       d="m 60.571144,1011.4604 c 0,0 -1.81786,-2.9086 -0.363572,-5.999 1.454288,-3.0903 3.908399,-15.99713 -3.272148,-9.54373 -7.180546,6.45343 -5.635365,0.54536 -5.817151,-0.90893 -0.181786,-1.45429 -1.181609,0.27268 -2.090539,0.27268 -0.90893,0 -1.363395,-3.18126 -2.363218,-2.545 -0.999823,0.63625 -0.90893,1.72696 -1.81786,0.54535 -0.90893,-1.18161 0.272679,-1.99964 -1.545181,-1.45428 -1.81786,0.54535 -1.999646,0.99982 -3.090362,-0.0909 -1.090716,-1.09071 -0.727144,-1.54518 -2.090539,-1.09071 -1.363394,0.45446 -2.363217,0.0909 -2.999468,-0.27268 -0.636251,-0.36357 -2.090539,0.18178 -1.999646,0.54536 0.09089,0.36357 5.271793,1.2725 5.271793,1.2725 l 4.817329,1.09071 6.36251,3.45394 3.181255,3.36299 2.363217,2.1815 2.908576,4.1811 1.545181,4.3628 0.727144,0.7272 z"
       style="fill:#ffe000;fill-opacity:1;fill-rule:evenodd;stroke:none;stroke-width:1px;stroke-linecap:butt;stroke-linejoin:miter;stroke-opacity:1" />
    <g
       id="g4167"
       transform="translate(-2.3439219,2.0000001)">
      <g
         transform="translate(2.0000001,0.91903953)"
         id="g4157">
        <ellipse
           style="opacity:1;fill:#ffffbb;fill-opacity:1;stroke:#ffe000;stroke-width:5.00000048;stroke-miterlimit:4;stroke-dasharray:none;stroke-opacity:1"
           id="path4140"
           cx="20.05069"
           cy="1008.2389"
           rx="7.7773013"
           ry="7.7042885" />
        <ellipse
           style="opacity:0.84899998;fill:#39390a;fill-opacity:1;stroke:none;stroke-width:5;stroke-linecap:round;stroke-linejoin:miter;stroke-miterlimit:4;stroke-dasharray:none;stroke-opacity:1"
           id="path4155"
           cx="19.996462"
           cy="1008.2792"
           rx="1.5451809"
           ry="1.1816089" />
      </g>
      <g
         transform="translate(25.086468,0.91903953)"
         id="g4161">
        <ellipse
           ry="7.7042885"
           rx="7.7773013"
           cy="1008.2389"
           cx="20.05069"
           id="ellipse4163"
           style="opacity:1;fill:#ffffbb;fill-opacity:1;stroke:#ffe000;stroke-width:5.00000048;stroke-miterlimit:4;stroke-dasharray:none;stroke-opacity:1" />
        <ellipse
           ry="1.1816089"
           rx="1.5451809"
           cy="1008.2792"
           cx="19.996462"
           id="ellipse4165"
           style="opacity:0.84899998;fill:#39390a;fill-opacity:1;stroke:none;stroke-width:5;stroke-linecap:round;stroke-linejoin:miter;stroke-miterlimit:4;stroke-dasharray:none;stroke-opacity:1" />
      </g>
    </g>
  </g>
</svg>
