<?xml version="1.0" encoding="UTF-8" standalone="no"?>
<!-- Created with Inkscape (http://www.inkscape.org/) -->

<svg
   xmlns:dc="http://purl.org/dc/elements/1.1/"
   xmlns:cc="http://creativecommons.org/ns#"
   xmlns:rdf="http://www.w3.org/1999/02/22-rdf-syntax-ns#"
   xmlns:svg="http://www.w3.org/2000/svg"
   xmlns="http://www.w3.org/2000/svg"
   xmlns:xlink="http://www.w3.org/1999/xlink"
   xmlns:sodipodi="http://sodipodi.sourceforge.net/DTD/sodipodi-0.dtd"
   xmlns:inkscape="http://www.inkscape.org/namespaces/inkscape"
   width="600"
   height="400"
   viewBox="0 0 0 1400"
   id="svg3336"
   version="1.1"
   inkscape:version="0.91 r13725"
   sodipodi:docname="brick2.svg"
   inkscape:export-filename="/projects/TowerJump/resources/bricks/brick2.png"
   inkscape:export-xdpi="90"
   inkscape:export-ydpi="90">
  <defs
     id="defs3338">
    <linearGradient
       inkscape:collect="always"
       id="linearGradient5724">
      <stop
         style="stop-color:#ffffff;stop-opacity:1"
         offset="0"
         id="stop5726" />
      <stop
         style="stop-color:#f9ff85;stop-opacity:1"
         offset="1"
         id="stop5728" />
    </linearGradient>
    <linearGradient
       inkscape:collect="always"
       id="linearGradient4141">
      <stop
         style="stop-color:#87ffd0;stop-opacity:1"
         offset="0"
         id="stop4143" />
      <stop
         style="stop-color:#1f6b5d;stop-opacity:1"
         offset="1"
         id="stop4145" />
    </linearGradient>
    <radialGradient
       inkscape:collect="always"
       xlink:href="#linearGradient4141"
       id="radialGradient4147"
       cx="297.14285"
       cy="860.94806"
       fx="297.14285"
       fy="860.94806"
       r="298.99999"
       gradientTransform="matrix(1.477783,-0.00477783,0.00215179,0.6655484,-143.82238,286.49364)"
       gradientUnits="userSpaceOnUse" />
    <radialGradient
       inkscape:collect="always"
       xlink:href="#linearGradient5724"
       id="radialGradient5730"
       cx="132.00124"
       cy="775.86781"
       fx="132.00124"
       fy="775.86781"
       r="56.704872"
       gradientTransform="matrix(1,0,0,0.98711826,0,9.9945271)"
       gradientUnits="userSpaceOnUse" />
    <radialGradient
       inkscape:collect="always"
       xlink:href="#linearGradient5724"
       id="radialGradient5742"
       gradientUnits="userSpaceOnUse"
       gradientTransform="matrix(1,0,0,0.98711826,167.99879,86.488902)"
       cx="132.00124"
       cy="775.86781"
       fx="132.00124"
       fy="775.86781"
       r="56.704872" />
    <radialGradient
       inkscape:collect="always"
       xlink:href="#linearGradient5724"
       id="radialGradient5746"
       gradientUnits="userSpaceOnUse"
       gradientTransform="matrix(1,0,0,0.98711826,7.1428556,182.85167)"
       cx="132.00124"
       cy="775.86781"
       fx="132.00124"
       fy="775.86781"
       r="56.704872" />
    <radialGradient
       inkscape:collect="always"
       xlink:href="#linearGradient5724"
       id="radialGradient5810"
       gradientUnits="userSpaceOnUse"
       gradientTransform="matrix(1,0,0,0.98711826,0,9.9945271)"
       cx="132.00124"
       cy="775.86781"
       fx="132.00124"
       fy="775.86781"
       r="56.704872" />
    <radialGradient
       inkscape:collect="always"
       xlink:href="#linearGradient5724"
       id="radialGradient5812"
       gradientUnits="userSpaceOnUse"
       gradientTransform="matrix(1,0,0,0.98711826,7.1428556,182.85167)"
       cx="132.00124"
       cy="775.86781"
       fx="132.00124"
       fy="775.86781"
       r="56.704872" />
  </defs>
  <sodipodi:namedview
     id="base"
     pagecolor="#ffffff"
     bordercolor="#666666"
     borderopacity="1.0"
     inkscape:pageopacity="0.0"
     inkscape:pageshadow="2"
     inkscape:zoom="1.4"
     inkscape:cx="311.53533"
     inkscape:cy="173.9735"
     inkscape:document-units="px"
     inkscape:current-layer="layer1"
     showgrid="false"
     units="px"
     inkscape:window-width="1827"
     inkscape:window-height="951"
     inkscape:window-x="1290"
     inkscape:window-y="9"
     inkscape:window-maximized="0" />
  <metadata
     id="metadata3341">
    <rdf:RDF>
      <cc:Work
         rdf:about="">
        <dc:format>image/svg+xml</dc:format>
        <dc:type
           rdf:resource="http://purl.org/dc/dcmitype/StillImage" />
        <dc:title />
      </cc:Work>
    </rdf:RDF>
  </metadata>
  <g
     inkscape:label="Ebene 1"
     inkscape:groupmode="layer"
     id="layer1"
     transform="translate(0,-652.3622)">
    <rect
       style="opacity:0.84899998;fill:url(#radialGradient4147);fill-opacity:1;stroke:none;stroke-width:8.00492287;stroke-linecap:round;stroke-linejoin:miter;stroke-miterlimit:4;stroke-dasharray:none;stroke-opacity:1"
       id="rect4139"
       width="589.99506"
       height="389.99509"
       x="5.0024719"
       y="657.36469"
       ry="89.999977" />
    <path
       inkscape:transform-center-y="2.0770371"
       inkscape:transform-center-x="-0.57267231"
       d="m 340.85591,886.71373 c -1.81861,2.06822 -20.59916,5.67731 -23.13503,6.75164 -2.53588,1.07434 -18.19337,12.05512 -20.94425,11.92279 -2.75089,-0.13233 -17.28207,-12.56533 -19.70311,-13.87811 -2.42104,-1.31279 -20.76845,-6.70791 -22.38014,-8.94114 -1.61168,-2.23324 -0.95122,-21.34602 -1.43434,-24.05737 -0.48311,-2.71136 -7.70446,-20.41974 -6.96332,-23.07221 0.74114,-2.65246 16.09591,-14.05272 17.91451,-16.12094 1.81861,-2.06822 11.16115,-18.75509 13.69702,-19.82942 2.53587,-1.07434 21.02249,3.82256 23.77337,3.95489 2.75088,0.13233 21.62218,-2.96748 24.04322,-1.65469 2.42105,1.31279 10.11872,18.81937 11.7304,21.0526 1.61169,2.23323 15.80128,15.05471 16.28439,17.76607 0.48312,2.71136 -8.40466,19.64481 -9.1458,22.29728 -0.74115,2.65246 -1.91832,21.74039 -3.73692,23.80861 z"
       inkscape:randomized="0"
       inkscape:rounded="0.114276"
       inkscape:flatsided="false"
       sodipodi:arg2="1.170065"
       sodipodi:arg1="0.72126605"
       sodipodi:r2="46.895466"
       sodipodi:r1="55.166721"
       sodipodi:cy="850.28516"
       sodipodi:cx="299.42734"
       sodipodi:sides="7"
       id="path5740"
       style="opacity:0.84899998;fill:url(#radialGradient5742);fill-opacity:1;stroke:none;stroke-width:20;stroke-linecap:round;stroke-linejoin:miter;stroke-miterlimit:4;stroke-dasharray:none;stroke-opacity:0.53913101"
       sodipodi:type="star" />
    <g
       id="g5814"
       transform="translate(-16.644087,0)">
      <g
         transform="translate(0,-9.9341974)"
         id="g5800">
        <path
           sodipodi:type="star"
           style="opacity:0.84899998;fill:url(#radialGradient5730);fill-opacity:1;stroke:none;stroke-width:20;stroke-linecap:round;stroke-linejoin:miter;stroke-miterlimit:4;stroke-dasharray:none;stroke-opacity:0.53913054"
           id="path5702"
           sodipodi:sides="7"
           sodipodi:cx="131.42857"
           sodipodi:cy="773.79077"
           sodipodi:r1="55.166721"
           sodipodi:r2="46.895466"
           sodipodi:arg1="0.72126605"
           sodipodi:arg2="1.170065"
           inkscape:flatsided="false"
           inkscape:rounded="0.114276"
           inkscape:randomized="0"
           d="m 172.85714,810.21934 c -1.8186,2.06822 -20.59915,5.67731 -23.13503,6.75165 -2.53587,1.07434 -18.19337,12.05511 -20.94425,11.92278 -2.75088,-0.13233 -17.28206,-12.56532 -19.70311,-13.87811 -2.42104,-1.31279 -20.768444,-6.70791 -22.38013,-8.94114 -1.611687,-2.23323 -0.951225,-21.34601 -1.434341,-24.05737 -0.483116,-2.71136 -7.704463,-20.41974 -6.963321,-23.0722 0.741141,-2.65247 16.095907,-14.05272 17.914513,-16.12094 1.818606,-2.06822 11.161139,-18.75509 13.697019,-19.82943 2.53587,-1.07434 21.02249,3.82256 23.77337,3.95489 2.75088,0.13233 21.62218,-2.96748 24.04322,-1.65469 2.42104,1.31279 10.11871,18.81938 11.7304,21.05261 1.61168,2.23323 15.80127,15.05471 16.28439,17.76606 0.48311,2.71136 -8.40467,19.64482 -9.14581,22.29728 -0.74114,2.65247 -1.91831,21.74039 -3.73692,23.80861 z"
           inkscape:transform-center-x="-0.57267231"
           inkscape:transform-center-y="2.0770371" />
        <path
           sodipodi:type="star"
           style="opacity:0.84899998;fill:url(#radialGradient5746);fill-opacity:1;stroke:none;stroke-width:20;stroke-linecap:round;stroke-linejoin:miter;stroke-miterlimit:4;stroke-dasharray:none;stroke-opacity:0.53913096"
           id="path5744"
           sodipodi:sides="7"
           sodipodi:cx="138.5714"
           sodipodi:cy="946.64795"
           sodipodi:r1="55.166721"
           sodipodi:r2="46.895466"
           sodipodi:arg1="0.72126605"
           sodipodi:arg2="1.170065"
           inkscape:flatsided="false"
           inkscape:rounded="0.114276"
           inkscape:randomized="0"
           d="m 179.99997,983.07652 c -1.81861,2.06822 -20.59916,5.67731 -23.13504,6.75165 -2.53587,1.07433 -18.19337,12.05513 -20.94425,11.92283 -2.75088,-0.1324 -17.28206,-12.56537 -19.7031,-13.87816 -2.42105,-1.31279 -20.768452,-6.70791 -22.380138,-8.94114 -1.611687,-2.23323 -0.951224,-21.34601 -1.434341,-24.05737 -0.483116,-2.71136 -7.704462,-20.41974 -6.963321,-23.07221 0.741141,-2.65246 16.09591,-14.05271 17.91451,-16.12093 1.81861,-2.06822 11.16114,-18.75509 13.69702,-19.82943 2.53587,-1.07434 21.02249,3.82256 23.77337,3.95489 2.75088,0.13233 21.62218,-2.96748 24.04322,-1.65469 2.42104,1.31279 10.11871,18.81937 11.7304,21.05261 1.61169,2.23323 15.80127,15.0547 16.28439,17.76606 0.48312,2.71136 -8.40467,19.64482 -9.14581,22.29728 -0.74114,2.65246 -1.91831,21.74039 -3.73691,23.80861 z"
           inkscape:transform-center-x="-0.57267231"
           inkscape:transform-center-y="2.0770371" />
      </g>
      <g
         id="g5804"
         transform="translate(362.14286,-9.9341974)">
        <path
           inkscape:transform-center-y="2.0770371"
           inkscape:transform-center-x="-0.57267231"
           d="m 172.85714,810.21934 c -1.8186,2.06822 -20.59915,5.67731 -23.13503,6.75165 -2.53587,1.07434 -18.19337,12.05511 -20.94425,11.92278 -2.75088,-0.13233 -17.28206,-12.56532 -19.70311,-13.87811 -2.42104,-1.31279 -20.768444,-6.70791 -22.38013,-8.94114 -1.611687,-2.23323 -0.951225,-21.34601 -1.434341,-24.05737 -0.483116,-2.71136 -7.704463,-20.41974 -6.963321,-23.0722 0.741141,-2.65247 16.095907,-14.05272 17.914513,-16.12094 1.818606,-2.06822 11.161139,-18.75509 13.697019,-19.82943 2.53587,-1.07434 21.02249,3.82256 23.77337,3.95489 2.75088,0.13233 21.62218,-2.96748 24.04322,-1.65469 2.42104,1.31279 10.11871,18.81938 11.7304,21.05261 1.61168,2.23323 15.80127,15.05471 16.28439,17.76606 0.48311,2.71136 -8.40467,19.64482 -9.14581,22.29728 -0.74114,2.65247 -1.91831,21.74039 -3.73692,23.80861 z"
           inkscape:randomized="0"
           inkscape:rounded="0.114276"
           inkscape:flatsided="false"
           sodipodi:arg2="1.170065"
           sodipodi:arg1="0.72126605"
           sodipodi:r2="46.895466"
           sodipodi:r1="55.166721"
           sodipodi:cy="773.79077"
           sodipodi:cx="131.42857"
           sodipodi:sides="7"
           id="path5806"
           style="opacity:0.84899998;fill:url(#radialGradient5810);fill-opacity:1;stroke:none;stroke-width:20;stroke-linecap:round;stroke-linejoin:miter;stroke-miterlimit:4;stroke-dasharray:none;stroke-opacity:0.53913066"
           sodipodi:type="star" />
        <path
           inkscape:transform-center-y="2.0770371"
           inkscape:transform-center-x="-0.57267231"
           d="m 179.99997,983.07652 c -1.81861,2.06822 -20.59916,5.67731 -23.13504,6.75165 -2.53587,1.07433 -18.19337,12.05513 -20.94425,11.92283 -2.75088,-0.1324 -17.28206,-12.56537 -19.7031,-13.87816 -2.42105,-1.31279 -20.768452,-6.70791 -22.380138,-8.94114 -1.611687,-2.23323 -0.951224,-21.34601 -1.434341,-24.05737 -0.483116,-2.71136 -7.704462,-20.41974 -6.963321,-23.07221 0.741141,-2.65246 16.09591,-14.05271 17.91451,-16.12093 1.81861,-2.06822 11.16114,-18.75509 13.69702,-19.82943 2.53587,-1.07434 21.02249,3.82256 23.77337,3.95489 2.75088,0.13233 21.62218,-2.96748 24.04322,-1.65469 2.42104,1.31279 10.11871,18.81937 11.7304,21.05261 1.61169,2.23323 15.80127,15.0547 16.28439,17.76606 0.48312,2.71136 -8.40467,19.64482 -9.14581,22.29728 -0.74114,2.65246 -1.91831,21.74039 -3.73691,23.80861 z"
           inkscape:randomized="0"
           inkscape:rounded="0.114276"
           inkscape:flatsided="false"
           sodipodi:arg2="1.170065"
           sodipodi:arg1="0.72126605"
           sodipodi:r2="46.895466"
           sodipodi:r1="55.166721"
           sodipodi:cy="946.64795"
           sodipodi:cx="138.5714"
           sodipodi:sides="7"
           id="path5808"
           style="opacity:0.84899998;fill:url(#radialGradient5812);fill-opacity:1;stroke:none;stroke-width:20;stroke-linecap:round;stroke-linejoin:miter;stroke-miterlimit:4;stroke-dasharray:none;stroke-opacity:0.53913101"
           sodipodi:type="star" />
      </g>
    </g>
  </g>
</svg>
