<?xml version="1.0" encoding="UTF-8" standalone="no"?>
<!-- Created with Inkscape (http://www.inkscape.org/) -->

<svg
   xmlns:dc="http://purl.org/dc/elements/1.1/"
   xmlns:cc="http://creativecommons.org/ns#"
   xmlns:rdf="http://www.w3.org/1999/02/22-rdf-syntax-ns#"
   xmlns:svg="http://www.w3.org/2000/svg"
   xmlns="http://www.w3.org/2000/svg"
   xmlns:sodipodi="http://sodipodi.sourceforge.net/DTD/sodipodi-0.dtd"
   xmlns:inkscape="http://www.inkscape.org/namespaces/inkscape"
   width="1400"
   height="1000"
   viewBox="0 0 1400 1000"
   id="svg3336"
   version="1.1"
   inkscape:version="0.92.4 (5da689c313, 2019-01-14)"
   sodipodi:docname="menuTower.svg"
   inkscape:export-filename="/Users/oliverbrehm/privat/towerjump/resources/menu/menuTower.png"
   inkscape:export-xdpi="90"
   inkscape:export-ydpi="90">
  <defs
     id="defs3338" />
  <sodipodi:namedview
     id="base"
     pagecolor="#ffffff"
     bordercolor="#666666"
     borderopacity="1.0"
     inkscape:pageopacity="0.0"
     inkscape:pageshadow="2"
     inkscape:zoom="0.7"
     inkscape:cx="448.35432"
     inkscape:cy="523.22649"
     inkscape:document-units="px"
     inkscape:current-layer="layer1"
     showgrid="false"
     units="px"
     inkscape:window-width="1920"
     inkscape:window-height="1036"
     inkscape:window-x="1440"
     inkscape:window-y="0"
     inkscape:window-maximized="1" />
  <metadata
     id="metadata3341">
    <rdf:RDF>
      <cc:Work
         rdf:about="">
        <dc:format>image/svg+xml</dc:format>
        <dc:type
           rdf:resource="http://purl.org/dc/dcmitype/StillImage" />
        <dc:title />
      </cc:Work>
    </rdf:RDF>
  </metadata>
  <g
     inkscape:label="Ebene 1"
     inkscape:groupmode="layer"
     id="layer1"
     transform="translate(0,-52.3622)">
    <rect
       style="opacity:1;fill:#444444;fill-opacity:1;stroke:none;stroke-width:50;stroke-linejoin:miter;stroke-miterlimit:4;stroke-dasharray:none;stroke-opacity:1"
       id="rect4730"
       width="1000"
       height="1000"
       x="200"
       y="52.362202" />
    <path
       style="fill:#444444;fill-opacity:1;fill-rule:evenodd;stroke:none;stroke-width:1px;stroke-linecap:butt;stroke-linejoin:miter;stroke-opacity:1"
       d="m 201.22034,52.3622 -15.25424,183.46774 -6.77966,-76.6129 -13.55932,205.64516 -11.86441,-68.54838 -15.25424,312.5 L 121.55932,499.94285 99.52542,810.42672 85.966102,755.99124 58.847457,969.70092 41.898305,1010.0235 26.644068,1034.2171 11.389831,1044.2977 8,1050.3461 l 200,2.0161 z"
       id="path4153"
       inkscape:connector-curvature="0" />
    <path
       inkscape:connector-curvature="0"
       id="path4155"
       d="m 1198.4753,52.3622 15.2543,183.46774 6.7797,-76.6129 13.5593,205.64516 11.8644,-68.54838 15.2542,312.5 16.9492,-108.87097 22.0339,310.48387 13.5593,-54.43548 27.1187,213.70968 16.9491,40.32258 15.2543,24.1936 15.2542,10.0806 3.3898,6.0484 -200,2.0161 z"
       style="fill:#444444;fill-opacity:1;fill-rule:evenodd;stroke:none;stroke-width:1px;stroke-linecap:butt;stroke-linejoin:miter;stroke-opacity:1" />
    <path
       style="fill:#4b4b4b;fill-rule:evenodd;stroke:none;stroke-width:1px;stroke-linecap:butt;stroke-linejoin:miter;stroke-opacity:1;fill-opacity:1"
       d="m 251.42857,1045.2193 -50,-495.71424 54.28571,-110 5.71429,121.42857 77.14286,-427.14285 74.28571,188.57142 135.71429,-148.57142 77.14285,207.14285 121.42857,-251.42857 140,232.85714 L 1010,106.64792 l 118.5714,461.42857 -52.8571,184.28571 192.8571,168.57143 32.8572,132.85717 -337.14289,20 -522.85714,-2.8572 z"
       id="path4181"
       inkscape:connector-curvature="0" />
    <path
       style="fill:#3d3d3d;fill-rule:evenodd;stroke:#353535;stroke-width:1px;stroke-linecap:butt;stroke-linejoin:miter;stroke-opacity:1;fill-opacity:1"
       d="M 331.42857,748.07649 460,366.64792 424.28571,215.21935 l 64.28572,70 108.57142,-32.85715 160,105.71429 180,-94.28571 15.71429,45.71428 145.71426,-78.57143 -52.8571,334.28572 -70.00002,117.14285 z"
       id="path4179"
       inkscape:connector-curvature="0" />
    <path
       style="fill:#353535;fill-rule:evenodd;stroke:#2c2c2c;stroke-width:1px;stroke-linecap:butt;stroke-linejoin:miter;stroke-opacity:1;fill-opacity:1"
       d="m 170,1009.5051 84.28571,-330.00004 14.28572,155.71428 117.14285,-339.99999 150,124.28571 L 777.14285,510.93363 881.42857,649.50506 1070,528.07649 l 54.2857,335.71428 34.2857,-164.28571 92.8572,330.00004 -334.28575,51.4285 -332.85714,-21.4285 z"
       id="path4177"
       inkscape:connector-curvature="0" />
    <path
       style="fill:#2c2c2c;fill-opacity:1;fill-rule:evenodd;stroke:none;stroke-width:1px;stroke-linecap:butt;stroke-linejoin:miter;stroke-opacity:1"
       d="m -20.490208,1056.3013 -15.815811,1.0398 549.463509,43.5084 913.17791,-4.0406 4.0406,-34.3452 -5.7738,-6.4075 -68.9775,-29.958 -151.5229,-20.203 -163.6447,34.3452 -143.44165,-76.77162 -54.54823,16.16244 -16.16244,32.32488 -131.31983,-14.14214 -20.20305,-52.52793 -46.46702,62.62947 -40.4061,-42.42642 -149.50258,34.34519 -115.15739,-48.48732 -98.99495,56.56855 -92.93403,-44.44672 z"
       id="path4165"
       inkscape:connector-curvature="0"
       sodipodi:nodetypes="ccccccccccccccccccccc" />
    <text
       xml:space="preserve"
       style="font-style:normal;font-weight:normal;font-size:12.23038864px;line-height:0%;font-family:sans-serif;letter-spacing:0px;word-spacing:0px;fill:#ffda0e;fill-opacity:1;stroke:none;stroke-width:1.01919913px;stroke-linecap:butt;stroke-linejoin:miter;stroke-opacity:1"
       x="246.14603"
       y="532.19849"
       id="text4905"
       transform="scale(0.96924809,1.0317276)"><tspan
         sodipodi:role="line"
         id="tspan4907"
         x="246.14603"
         y="532.19849"
         style="font-style:normal;font-variant:normal;font-weight:bold;font-stretch:normal;font-size:178.35983276px;line-height:125%;font-family:'American Typewriter';-inkscape-font-specification:'American Typewriter, Bold';text-align:start;writing-mode:lr-tb;text-anchor:start;fill:#ffda0e;fill-opacity:1;stroke-width:1.01919913px">BOUNCY'S</tspan></text>
    <text
       id="text4909"
       y="820.42084"
       x="167.68924"
       style="font-style:normal;font-weight:normal;font-size:12.85888481px;line-height:0%;font-family:sans-serif;letter-spacing:0px;word-spacing:0px;fill:#ffda0e;fill-opacity:1;stroke:none;stroke-width:1.07157373px;stroke-linecap:butt;stroke-linejoin:miter;stroke-opacity:1"
       xml:space="preserve"
       transform="scale(0.96924809,1.0317276)"><tspan
         style="font-style:normal;font-variant:normal;font-weight:bold;font-stretch:normal;font-size:282.29052734px;line-height:125%;font-family:'American Typewriter';-inkscape-font-specification:'American Typewriter, Bold';text-align:start;writing-mode:lr-tb;text-anchor:start;fill:#ffda0e;fill-opacity:1;stroke-width:1.07157373px"
         y="820.42084"
         x="167.68924"
         id="tspan4911"
         sodipodi:role="line">TOWER</tspan></text>
  </g>
</svg>
